<svg width="1200" height="600" viewBox="0 0 1200 600" fill="none" xmlns="http://www.w3.org/2000/svg">
  <!-- Background with gradient -->
  <rect width="1200" height="600" fill="url(#paint0_linear)" />
  
  <!-- Zen garden elements -->
  <circle cx="600" cy="300" r="200" fill="url(#paint1_radial)" opacity="0.7" />
  <circle cx="600" cy="300" r="150" fill="url(#paint2_radial)" opacity="0.5" />
  
  <!-- Abstract waves representing water -->
  <path d="M200,400 C300,350 400,450 500,400 C600,350 700,450 800,400 C900,350 1000,450 1000,400" stroke="white" stroke-width="2" opacity="0.6" />
  <path d="M200,420 C300,370 400,470 500,420 C600,370 700,470 800,420 C900,370 1000,470 1000,420" stroke="white" stroke-width="2" opacity="0.4" />
  
  <!-- Abstract stones -->
  <ellipse cx="400" cy="250" rx="30" ry="20" fill="white" opacity="0.8" />
  <ellipse cx="700" cy="280" rx="40" ry="25" fill="white" opacity="0.8" />
  <ellipse cx="500" cy="320" rx="35" ry="22" fill="white" opacity="0.8" />
  <ellipse cx="800" cy="270" rx="25" ry="18" fill="white" opacity="0.8" />
  
  <!-- Gradients -->
  <defs>
    <linearGradient id="paint0_linear" x1="0" y1="0" x2="1200" y2="600" gradientUnits="userSpaceOnUse">
      <stop stop-color="#1a1a2e" />
      <stop offset="1" stop-color="#16213e" />
    </linearGradient>
    <radialGradient id="paint1_radial" cx="0" cy="0" r="1" gradientUnits="userSpaceOnUse" gradientTransform="translate(600 300) rotate(90) scale(200)">
      <stop stop-color="#0f3460" />
      <stop offset="1" stop-color="#0f3460" stop-opacity="0" />
    </radialGradient>
    <radialGradient id="paint2_radial" cx="0" cy="0" r="1" gradientUnits="userSpaceOnUse" gradientTransform="translate(600 300) rotate(90) scale(150)">
      <stop stop-color="#e94560" />
      <stop offset="1" stop-color="#e94560" stop-opacity="0" />
    </radialGradient>
  </defs>
</svg> 