<svg width="1200" height="600" viewBox="0 0 1200 600" fill="none" xmlns="http://www.w3.org/2000/svg">
  <!-- Background with gradient -->
  <rect width="1200" height="600" fill="url(#paint0_linear)" />
  
  <!-- Japanese maple tree silhouette -->
  <path d="M600,100 C650,150 700,200 750,250 C800,300 850,350 900,400 C850,450 800,500 750,550 C700,500 650,450 600,400 C550,450 500,500 450,550 C400,500 350,450 300,400 C350,350 400,300 450,250 C500,200 550,150 600,100 Z" fill="url(#paint1_radial)" opacity="0.7" />
  
  <!-- Cherry blossoms -->
  <g transform="translate(600, 300)">
    <circle cx="-200" cy="-150" r="5" fill="white" opacity="0.8" />
    <circle cx="-180" cy="-170" r="4" fill="white" opacity="0.8" />
    <circle cx="-220" cy="-160" r="3" fill="white" opacity="0.8" />
    <circle cx="-190" cy="-140" r="4" fill="white" opacity="0.8" />
    
    <circle cx="200" cy="-100" r="5" fill="white" opacity="0.8" />
    <circle cx="180" cy="-120" r="4" fill="white" opacity="0.8" />
    <circle cx="220" cy="-110" r="3" fill="white" opacity="0.8" />
    <circle cx="190" cy="-90" r="4" fill="white" opacity="0.8" />
    
    <circle cx="-150" cy="100" r="5" fill="white" opacity="0.8" />
    <circle cx="-130" cy="80" r="4" fill="white" opacity="0.8" />
    <circle cx="-170" cy="90" r="3" fill="white" opacity="0.8" />
    <circle cx="-140" cy="110" r="4" fill="white" opacity="0.8" />
    
    <circle cx="150" cy="150" r="5" fill="white" opacity="0.8" />
    <circle cx="130" cy="130" r="4" fill="white" opacity="0.8" />
    <circle cx="170" cy="140" r="3" fill="white" opacity="0.8" />
    <circle cx="140" cy="160" r="4" fill="white" opacity="0.8" />
  </g>
  
  <!-- Moon -->
  <circle cx="900" cy="150" r="40" fill="url(#paint2_radial)" />
  
  <!-- Gradients -->
  <defs>
    <linearGradient id="paint0_linear" x1="0" y1="0" x2="1200" y2="600" gradientUnits="userSpaceOnUse">
      <stop stop-color="#1e293b" />
      <stop offset="1" stop-color="#0f172a" />
    </linearGradient>
    <radialGradient id="paint1_radial" cx="0" cy="0" r="1" gradientUnits="userSpaceOnUse" gradientTransform="translate(600 325) rotate(90) scale(325)">
      <stop stop-color="#ef4444" />
      <stop offset="1" stop-color="#7f1d1d" stop-opacity="0" />
    </radialGradient>
    <radialGradient id="paint2_radial" cx="0" cy="0" r="1" gradientUnits="userSpaceOnUse" gradientTransform="translate(900 150) rotate(90) scale(40)">
      <stop stop-color="#f8fafc" />
      <stop offset="1" stop-color="#cbd5e1" />
    </radialGradient>
  </defs>
</svg> 