<svg width="1200" height="600" viewBox="0 0 1200 600" fill="none" xmlns="http://www.w3.org/2000/svg">
  <!-- Background with gradient -->
  <rect width="1200" height="600" fill="url(#paint0_linear)" />
  
  <!-- Mountains -->
  <path d="M0,400 L200,200 L400,350 L600,150 L800,300 L1000,100 L1200,400 L1200,600 L0,600 Z" fill="url(#paint1_linear)" />
  
  <!-- Snow caps -->
  <path d="M180,220 L200,200 L220,220 Z" fill="white" />
  <path d="M580,170 L600,150 L620,170 Z" fill="white" />
  <path d="M980,120 L1000,100 L1020,120 Z" fill="white" />
  
  <!-- Clouds -->
  <g transform="translate(300, 150)">
    <circle cx="0" cy="0" r="30" fill="white" opacity="0.8" />
    <circle cx="20" cy="-10" r="25" fill="white" opacity="0.8" />
    <circle cx="40" cy="0" r="20" fill="white" opacity="0.8" />
  </g>
  
  <g transform="translate(700, 200)">
    <circle cx="0" cy="0" r="25" fill="white" opacity="0.8" />
    <circle cx="15" cy="-8" r="20" fill="white" opacity="0.8" />
    <circle cx="30" cy="0" r="15" fill="white" opacity="0.8" />
  </g>
  
  <!-- Stars -->
  <g transform="translate(200, 100)">
    <circle cx="0" cy="0" r="1" fill="white" />
    <circle cx="20" cy="10" r="1" fill="white" />
    <circle cx="40" cy="-5" r="1" fill="white" />
    <circle cx="60" cy="15" r="1" fill="white" />
    <circle cx="80" cy="-10" r="1" fill="white" />
  </g>
  
  <g transform="translate(800, 150)">
    <circle cx="0" cy="0" r="1" fill="white" />
    <circle cx="15" cy="8" r="1" fill="white" />
    <circle cx="30" cy="-3" r="1" fill="white" />
    <circle cx="45" cy="12" r="1" fill="white" />
    <circle cx="60" cy="-8" r="1" fill="white" />
  </g>
  
  <!-- Gradients -->
  <defs>
    <linearGradient id="paint0_linear" x1="0" y1="0" x2="0" y2="600" gradientUnits="userSpaceOnUse">
      <stop stop-color="#0f172a" />
      <stop offset="1" stop-color="#1e293b" />
    </linearGradient>
    <linearGradient id="paint1_linear" x1="0" y1="100" x2="0" y2="600" gradientUnits="userSpaceOnUse">
      <stop stop-color="#334155" />
      <stop offset="1" stop-color="#1e293b" />
    </linearGradient>
  </defs>
</svg> 