<svg width="32" height="32" viewBox="0 0 32 32" fill="none" xmlns="http://www.w3.org/2000/svg">
  <!-- Background with gradient -->
  <defs>
    <linearGradient id="grad1" x1="0" y1="0" x2="32" y2="32">
      <stop offset="0%" stop-color="#0f172a" />
      <stop offset="100%" stop-color="#1e293b" />
    </linearGradient>
    <linearGradient id="grad2" x1="16" y1="8" x2="16" y2="24">
      <stop offset="0%" stop-color="#475569" />
      <stop offset="100%" stop-color="#334155" />
    </linearGradient>
  </defs>

  <!-- Background circle -->
  <circle cx="16" cy="16" r="16" fill="url(#grad1)" />

  <!-- Simplified profile representation -->
  <path d="M16 10C13.7909 10 12 11.7909 12 14C12 16.2091 13.7909 18 16 18C18.2091 18 20 16.2091 20 14C20 11.7909 18.2091 10 16 10Z" fill="url(#grad2)" />
  <path d="M24 24C24 20.6863 20.4183 18 16 18C11.5817 18 8 20.6863 8 24" stroke="url(#grad2)" stroke-width="2.5" stroke-linecap="round" />

  <!-- Glasses detail - characteristic from your profile picture -->
  <path d="M13 13.5H15" stroke="white" stroke-opacity="0.8" stroke-width="0.75" stroke-linecap="round" />
  <path d="M17 13.5H19" stroke="white" stroke-opacity="0.8" stroke-width="0.75" stroke-linecap="round" />

  <!-- Subtle border -->
  <circle cx="16" cy="16" r="15.5" stroke="white" stroke-opacity="0.1" fill="none" />
</svg> 